<svg width="31" height="30" viewBox="0 0 31 30" fill="none" xmlns="http://www.w3.org/2000/svg">
<path fill-rule="evenodd" clip-rule="evenodd" d="M15.6928 1.0918C7.57504 1.0918 1 7.49795 1 15.4072C1 21.7418 5.20582 27.0922 11.0462 28.989C11.7809 29.1142 12.0564 28.6848 12.0564 28.309C12.0564 27.969 12.038 26.8417 12.038 25.6427C8.34641 26.3048 7.39138 24.7659 7.09752 23.9607C6.93223 23.5491 6.21595 22.2786 5.59151 21.9386C5.07726 21.6702 4.34262 21.0081 5.57314 20.9902C6.7302 20.9723 7.55667 22.0281 7.83216 22.4576C9.15452 24.6228 11.2666 24.0144 12.1114 23.6386C12.24 22.7081 12.6257 22.0818 13.0481 21.7239C9.77896 21.366 6.36288 20.1313 6.36288 14.6557C6.36288 13.0989 6.93223 11.8105 7.8689 10.8084C7.72197 10.4505 7.20772 8.98317 8.01582 7.0148C8.01582 7.0148 9.24635 6.63902 12.0564 8.48213C13.2318 8.16003 14.4807 7.99898 15.7296 7.99898C16.9784 7.99898 18.2273 8.16003 19.4028 8.48213C22.2128 6.62113 23.4433 7.0148 23.4433 7.0148C24.2514 8.98317 23.7371 10.4505 23.5902 10.8084C24.5269 11.8105 25.0962 13.081 25.0962 14.6557C25.0962 20.1492 21.6618 21.366 18.3926 21.7239C18.9252 22.1712 19.3844 23.0302 19.3844 24.3722C19.3844 26.2869 19.366 27.8258 19.366 28.309C19.366 28.6848 19.6415 29.1321 20.3762 28.989C26.1798 27.0922 30.3856 21.7239 30.3856 15.4072C30.3856 7.49795 23.8106 1.0918 15.6928 1.0918Z" stroke="white"/>
</svg>
