<svg width="27" height="29" viewBox="0 0 27 29" fill="none" xmlns="http://www.w3.org/2000/svg">
<path fill-rule="evenodd" clip-rule="evenodd" d="M7.13737 1.93774C3.94026 1.93774 1.30713 4.6672 1.30713 8.08644V21.3838C1.30713 24.8031 3.94026 27.5325 7.13737 27.5325H19.7979C22.995 27.5325 25.6281 24.8031 25.6281 21.3838V8.08644C25.6281 4.6672 22.995 1.93774 19.7979 1.93774H7.13737ZM0.307129 8.08644C0.307129 4.16173 3.34229 0.937744 7.13737 0.937744H19.7979C23.5929 0.937744 26.6281 4.16173 26.6281 8.08644V21.3838C26.6281 25.3085 23.5929 28.5325 19.7979 28.5325H7.13737C3.34229 28.5325 0.307129 25.3085 0.307129 21.3838V8.08644ZM14.1883 9.90997C13.2443 9.76296 12.2792 9.93192 11.4292 10.3952C10.5788 10.8586 9.8847 11.5945 9.44977 12.5021C9.01472 13.4099 8.86261 14.4406 9.01674 15.4467C9.17086 16.4526 9.62261 17.3784 10.3036 18.0936C10.9842 18.8085 11.8587 19.2765 12.8012 19.4357C13.7434 19.595 14.7103 19.4385 15.5655 18.9864C16.4212 18.5341 17.1237 17.8074 17.5692 16.9056C18.0148 16.0037 18.179 14.9751 18.0367 13.967C17.8916 12.9389 17.4358 11.9906 16.7412 11.2611C16.0469 10.5318 15.1513 10.06 14.1883 9.90997ZM10.9507 9.51709C11.9917 8.94979 13.1788 8.74069 14.3422 8.92189C15.5287 9.10668 16.6231 9.68683 17.4654 10.5715C18.3074 11.4558 18.8533 12.5977 19.0269 13.8273C19.1971 15.0326 19.0013 16.2645 18.4658 17.3486C17.9301 18.4329 17.0801 19.3168 16.0329 19.8705C14.9852 20.4243 13.7956 20.618 12.6345 20.4218C11.4736 20.2256 10.4051 19.6505 9.57934 18.7832C8.75391 17.9162 8.21261 16.8013 8.02828 15.5981C7.84396 14.395 8.02522 13.1608 8.54797 12.0699C9.07084 10.9789 9.91018 10.0842 10.9507 9.51709ZM20.4309 6.92157C20.1547 6.92157 19.9309 7.14543 19.9309 7.42157C19.9309 7.69771 20.1547 7.92157 20.4309 7.92157H20.443C20.7191 7.92157 20.943 7.69771 20.943 7.42157C20.943 7.14543 20.7191 6.92157 20.443 6.92157H20.4309Z" fill="white"/>
</svg>
