<svg width="28" height="29" viewBox="0 0 28 29" fill="none" xmlns="http://www.w3.org/2000/svg">
<path fill-rule="evenodd" clip-rule="evenodd" d="M1.18005 4.2634C1.18005 2.97511 2.17121 1.97095 3.34542 1.97095C4.51963 1.97095 5.51078 2.97511 5.51078 4.2634C5.51078 5.55169 4.51963 6.55585 3.34542 6.55585C2.17121 6.55585 1.18005 5.55169 1.18005 4.2634ZM3.34542 0.970947C1.57554 0.970947 0.180054 2.46723 0.180054 4.2634C0.180054 6.05957 1.57554 7.55585 3.34542 7.55585C5.11529 7.55585 6.51078 6.05957 6.51078 4.2634C6.51078 2.46723 5.11529 0.970947 3.34542 0.970947ZM19.3376 10.3483C17.3572 10.3483 15.453 11.1723 14.0452 12.6472C12.6367 14.1229 11.8415 16.1291 11.8415 18.2257V27.4992H16.1722V18.2257C16.1722 17.3598 16.5003 16.5249 17.0912 15.9059C17.6829 15.286 18.4904 14.9332 19.3376 14.9332C20.1848 14.9332 20.9924 15.286 21.584 15.9059C22.1749 16.5249 22.503 17.3598 22.503 18.2257V27.4992H26.8337V18.2257C26.8337 16.1291 26.0386 14.1229 24.63 12.6472C23.2222 11.1723 21.318 10.3483 19.3376 10.3483ZM19.3376 9.3483C17.0766 9.3483 14.9132 10.2895 13.3218 11.9567C11.7312 13.6232 10.8415 15.8786 10.8415 18.2257V27.9992C10.8415 28.2754 11.0654 28.4992 11.3415 28.4992H16.6722C16.9484 28.4992 17.1722 28.2754 17.1722 27.9992V18.2257C17.1722 17.6103 17.4058 17.0246 17.8146 16.5963C18.2227 16.1688 18.771 15.9332 19.3376 15.9332C19.9042 15.9332 20.4525 16.1688 20.8606 16.5963C21.2694 17.0246 21.503 17.6103 21.503 18.2257V27.9992C21.503 28.2754 21.7268 28.4992 22.003 28.4992H27.3337C27.6098 28.4992 27.8337 28.2754 27.8337 27.9992V18.2257C27.8337 15.8786 26.944 13.6232 25.3534 11.9567C23.7621 10.2895 21.5986 9.3483 19.3376 9.3483ZM0.180054 11.2445C0.180054 10.9684 0.403911 10.7445 0.680054 10.7445H6.01078C6.28693 10.7445 6.51078 10.9684 6.51078 11.2445V27.9992C6.51078 28.2754 6.28693 28.4992 6.01078 28.4992H0.680054C0.403911 28.4992 0.180054 28.2754 0.180054 27.9992V11.2445ZM1.18005 11.7445V27.4992H5.51078V11.7445H1.18005Z" fill="white"/>
</svg>
