<svg width="39" height="32" viewBox="0 0 39 32" fill="none" xmlns="http://www.w3.org/2000/svg">
<g clip-path="url(#clip0_2143_2972)">
<path d="M35.4171 7.32487C35.2294 6.54082 34.8472 5.82245 34.3091 5.2423C33.771 4.66216 33.096 4.24079 32.3523 4.02077C29.635 3.3269 18.7661 3.3269 18.7661 3.3269C18.7661 3.3269 7.8971 3.3269 5.17985 4.08685C4.43616 4.30688 3.76117 4.72824 3.22304 5.30839C2.68491 5.88853 2.30272 6.6069 2.11506 7.39095C1.61776 10.2747 1.37451 13.2001 1.38835 16.1303C1.37063 19.0826 1.6139 22.0303 2.11506 24.9357C2.32195 25.6954 2.7127 26.3865 3.24958 26.9421C3.78645 27.4978 4.45129 27.8992 5.17985 28.1077C7.8971 28.8676 18.7661 28.8676 18.7661 28.8676C18.7661 28.8676 29.635 28.8676 32.3523 28.1077C33.096 27.8877 33.771 27.4663 34.3091 26.8861C34.8472 26.306 35.2294 25.5876 35.4171 24.8036C35.9105 21.9415 36.1538 19.0385 36.1438 16.1303C36.1615 13.178 35.9182 10.2303 35.4171 7.32487V7.32487Z" stroke="white" stroke-linecap="round" stroke-linejoin="round"/>
<path d="M15.0428 21.2054L24.9735 16.0973L15.0428 10.9891V21.2054Z" stroke="white" stroke-linecap="round" stroke-linejoin="round"/>
</g>
<defs>
<clipPath id="clip0_2143_2972">
<rect width="38.4812" height="30.6489" fill="white" transform="translate(0.146851 0.772827)"/>
</clipPath>
</defs>
</svg>
